<?xml version="1.0" encoding="UTF-8"?>
<svg id="Layer_1" data-name="Layer 1" xmlns="http://www.w3.org/2000/svg" viewBox="0 0 907.09 907.09">
  <defs>
    <style>
      .cls-1 {
        fill: #fff;
      }

      .cls-2 {
        fill: #d63427;
      }

      .cls-3 {
        fill: #1d67ae;
      }
    </style>
  </defs>
  <path class="cls-2" d="m662.99,225.1l-487.47,487.5c-29.54,29.54-79.56,22.48-99.07-14.47-.21-.39-.42-.74-.6-1.13-12.57-23.97-7.65-53.36,11.46-72.51l170.11-170.08,47.52,78.22,13.82-13.58-9.2-48.33-3.33-17.48-9.56-49.88,15.54-14c13.13-11.79,23.05-26.68,28.94-43.33,2.53-7.27-4.38-14.29-11.7-11.88-16.7,5.6-31.8,15.31-43.8,28.23l-14.2,15.28-49.73-10.3.03-.03-17.48-3.63-50.53-10.48-13.22,13.01,73.01,46.03-175.27,175.27c-3.51-19.65-5.57-39.75-5.98-60.27-4.35-206.92,158.32-381.83,365.06-391.65,89.6-4.26,172.88,22.21,240.18,69.83,8.61,6.07,16.94,12.51,25.01,19.27.15.15.3.27.45.39Z"/>
  <path class="cls-3" d="m800.03,521.05c-1.07,212.7-172.2,382.48-384.92,381.95-22.03-.06-43.65-1.97-64.68-5.63l109.79-109.79,37.85,62.35,11.37-11.23-8.31-43.71-2.89-15.1-8.22-43,13.4-12.06c11.32-10.15,19.86-23.02,24.95-37.37,2.17-6.25-3.78-12.33-10.12-10.24-14.38,4.82-27.39,13.19-37.76,24.33l-12.24,13.19-42.88-8.9.03-.03-15.1-3.1-43.56-9.05-11.4,11.2,62.32,39.25-102.73,102.76c-20.37,20.37-51.72,25.64-77.24,12.24-.42-.24-.83-.45-1.22-.66-39.31-20.81-46.75-74.05-15.31-105.5l485.21-485.21c58.75,67.8,94.12,156.45,93.65,253.31Z"/>
  <path class="cls-2" d="m836.78,58.68l-15.55,13.99,9.54,49.87,3.34,17.49,9.65,50.71-13.19,13-54.74-90.12-58.01,49.79c-3.88.72-8.02-.46-10.95-3.46v-.04c-4.64-4.68-4.71-12.16-.27-16.95l1.63-1.75-.27-.15c6.42-7.07,13.38-14.71,19.92-21.82l.68.15,25.7-27.63-89.21-56.22,13.23-13,50.52,10.49,17.49,3.61-.04.04,49.72,10.3,14.22-15.28c12.01-12.92,27.1-22.62,43.79-28.2,7.34-2.43,14.25,4.6,11.71,11.86-5.89,16.65-15.81,31.55-28.93,43.33Z"/>
  <polygon class="cls-1" points="319.22 521.44 306.03 534.42 304.96 532.64 318.77 519.06 319.22 521.44"/>
  <polygon class="cls-2" points="776.92 112.19 772.87 116.18 662.55 224.71 167.15 712.1 145.21 689.8 304.96 532.64 318.77 519.06 637.53 205.45 753.54 91.29 754.97 89.89 776.92 112.19"/>
</svg>