<?xml version="1.0" encoding="UTF-8"?>
<svg id="Layer_1" data-name="Layer 1" xmlns="http://www.w3.org/2000/svg" viewBox="0 0 2721.26 2721.26">
  <defs>
    <style>
      .cls-1 {
        fill: #fff;
      }

      .cls-2 {
        fill: #d63427;
      }

      .cls-3 {
        fill: #1d67ae;
      }
    </style>
  </defs>
  <path class="cls-2" d="m2006.4,672.74l-1472.17,1472.26c-89.21,89.21-240.28,67.89-299.18-43.7-.63-1.17-1.26-2.25-1.8-3.42-37.95-72.39-23.11-161.15,34.62-218.97l513.74-513.65,143.52,236.23,41.73-41.01-27.79-145.95-10.07-52.79-28.87-150.62,46.94-42.26c39.66-35.61,69.6-80.57,87.41-130.84,7.64-21.94-13.22-43.16-35.34-35.88-50.45,16.91-96.04,46.22-132.28,85.25l-42.89,46.13-150.17-31.11.09-.09-52.79-10.97-152.6-31.65-39.93,39.3,220.5,139.02L119.77,1767.31c-10.61-59.35-16.82-120.05-18.07-182.01-13.13-624.89,478.13-1153.11,1102.48-1182.79,270.58-12.86,522.11,67.08,725.34,210.87,25.99,18.35,51.17,37.77,75.54,58.18.45.45.9.81,1.35,1.17Z"/>
  <path class="cls-3" d="m2420.24,1566.51c-3.24,642.34-520.04,1155.09-1162.46,1153.47-66.54-.18-131.83-5.93-195.32-17l331.55-331.55,114.3,188.3,34.35-33.9-25.09-132.01-8.72-45.59-24.82-129.85,40.47-36.42c34.17-30.66,59.98-69.51,75.36-112.86,6.56-18.88-11.42-37.23-30.57-30.93-43.43,14.57-82.73,39.84-114.03,73.47l-36.96,39.84-129.49-26.89.09-.09-45.59-9.35-131.56-27.34-34.44,33.81,188.21,118.52-310.24,310.33c-61.51,61.51-156.2,77.43-233.27,36.96-1.26-.72-2.52-1.35-3.69-1.98-118.7-62.86-141.18-223.64-46.22-318.61l1465.33-1465.33c177.42,204.76,284.25,472.47,282.81,764.99Z"/>
  <path class="cls-2" d="m2531.25,170.16l-46.95,42.24,28.81,150.61,10.1,52.8,29.16,153.13-39.83,39.26-165.3-272.17-175.17,150.38c-11.71,2.18-24.22-1.38-33.06-10.45v-.11c-14-14.12-14.23-36.73-.8-51.2l4.94-5.28-.8-.46c19.4-21.35,40.41-44.42,60.15-65.89l2.07.46,77.6-83.45-269.42-169.78,39.95-39.26,152.56,31.68,52.8,10.9-.11.11,150.15,31.11,42.93-46.15c36.27-39.03,81.85-68.3,132.24-85.18,22.15-7.35,43.05,13.89,35.36,35.82-17.79,50.28-47.75,95.28-87.36,130.86Z"/>
  <polygon class="cls-1" points="968.21 1567.68 928.38 1606.89 925.14 1601.49 966.87 1560.49 968.21 1567.68"/>
  <polygon class="cls-2" points="2350.46 331.75 2338.23 343.8 2005.05 671.58 508.97 2143.47 442.69 2076.12 925.14 1601.49 966.87 1560.49 1929.52 613.39 2279.86 268.62 2284.18 264.39 2350.46 331.75"/>
</svg>