<?xml version="1.0" encoding="UTF-8"?>
<svg id="Layer_1" data-name="Layer 1" xmlns="http://www.w3.org/2000/svg" viewBox="0 0 453.54 453.54">
  <defs>
    <style>
      .cls-1 {
        fill: #fff;
      }

      .cls-2 {
        fill: #d63427;
      }

      .cls-3 {
        fill: #1d67ae;
      }
    </style>
  </defs>
  <path class="cls-2" d="m333.14,113.41l-242.73,242.74c-14.71,14.71-39.62,11.19-49.33-7.21-.1-.19-.21-.37-.3-.56-6.26-11.94-3.81-26.57,5.71-36.1l84.71-84.69,23.66,38.95,6.88-6.76-4.58-24.06-1.66-8.7-4.76-24.83,7.74-6.97c6.54-5.87,11.48-13.28,14.41-21.57,1.26-3.62-2.18-7.12-5.83-5.92-8.32,2.79-15.84,7.62-21.81,14.06l-7.07,7.61-24.76-5.13h.01s-8.7-1.82-8.7-1.82l-25.16-5.22-6.58,6.48,36.36,22.92-87.27,87.27c-1.75-9.79-2.77-19.79-2.98-30.01-2.16-103.03,78.83-190.12,181.78-195.02,44.61-2.12,86.08,11.06,119.59,34.77,4.28,3.02,8.44,6.23,12.45,9.59.07.07.15.13.22.19Z"/>
  <path class="cls-3" d="m401.37,260.77c-.53,105.91-85.74,190.45-191.67,190.18-10.97-.03-21.74-.98-32.2-2.8l54.67-54.67,18.84,31.05,5.66-5.59-4.14-21.77-1.44-7.52-4.09-21.41,6.67-6c5.63-5.06,9.89-11.46,12.42-18.61,1.08-3.11-1.88-6.14-5.04-5.1-7.16,2.4-13.64,6.57-18.8,12.11l-6.09,6.57-21.35-4.43h.01s-7.52-1.56-7.52-1.56l-21.69-4.51-5.68,5.57,31.03,19.54-51.15,51.17c-10.14,10.14-25.75,12.77-38.46,6.09-.21-.12-.42-.22-.61-.33-19.57-10.36-23.28-36.87-7.62-52.53l241.6-241.6c29.25,33.76,46.87,77.9,46.63,126.13Z"/>
  <path class="cls-2" d="m419.67,30.55l-7.74,6.97,4.75,24.83,1.67,8.71,4.81,25.25-6.57,6.47-27.25-44.88-28.88,24.79c-1.93.36-3.99-.23-5.45-1.72v-.02c-2.31-2.33-2.35-6.06-.13-8.44l.81-.87-.13-.08c3.2-3.52,6.66-7.32,9.92-10.86l.34.08,12.79-13.76-44.42-27.99,6.59-6.47,25.15,5.22,8.71,1.8-.02.02,24.76,5.13,7.08-7.61c5.98-6.44,13.49-11.26,21.8-14.04,3.65-1.21,7.1,2.29,5.83,5.91-2.93,8.29-7.87,15.71-14.4,21.58Z"/>
  <polygon class="cls-1" points="161.96 260.97 155.39 267.43 154.86 266.54 161.74 259.78 161.96 260.97"/>
  <polygon class="cls-2" points="389.86 57.19 387.85 59.17 332.91 113.22 86.24 355.9 75.31 344.8 154.86 266.54 161.74 259.78 320.46 103.63 378.23 46.78 378.94 46.08 389.86 57.19"/>
</svg>