<?xml version="1.0" encoding="UTF-8"?>
<svg id="Layer_1" data-name="Layer 1" xmlns="http://www.w3.org/2000/svg" viewBox="0 0 1375 311">
  <defs>
    <style>
      .cls-1 {
        fill: #fff;
      }

      .cls-2 {
        fill: #d63427;
      }

      .cls-3 {
        fill: #1d67ae;
      }
    </style>
  </defs>
  <path class="cls-2" d="m221.34,76.32L57.63,240.04c-9.92,9.92-26.72,7.55-33.27-4.86-.07-.13-.14-.25-.2-.38-4.22-8.05-2.57-17.92,3.85-24.35l57.13-57.12,15.96,26.27,4.64-4.56-3.09-16.23-1.12-5.87-3.21-16.75,5.22-4.7c4.41-3.96,7.74-8.96,9.72-14.55.85-2.44-1.47-4.8-3.93-3.99-5.61,1.88-10.68,5.14-14.71,9.48l-4.77,5.13-16.7-3.46h0s-5.87-1.23-5.87-1.23l-16.97-3.52-4.44,4.37,24.52,15.46-58.86,58.86c-1.18-6.6-1.87-13.35-2.01-20.24-1.46-69.49,53.17-128.23,122.6-131.53,30.09-1.43,58.06,7.46,80.66,23.45,2.89,2.04,5.69,4.2,8.4,6.47.05.05.1.09.15.13Z"/>
  <path class="cls-3" d="m267.36,175.71c-.36,71.43-57.83,128.45-129.27,128.27-7.4-.02-14.66-.66-21.72-1.89l36.87-36.87,12.71,20.94,3.82-3.77-2.79-14.68-.97-5.07-2.76-14.44,4.5-4.05c3.8-3.41,6.67-7.73,8.38-12.55.73-2.1-1.27-4.14-3.4-3.44-4.83,1.62-9.2,4.43-12.68,8.17l-4.11,4.43-14.4-2.99h.01s-5.07-1.05-5.07-1.05l-14.63-3.04-3.83,3.76,20.93,13.18-34.5,34.51c-6.84,6.84-17.37,8.61-25.94,4.11-.14-.08-.28-.15-.41-.22-13.2-6.99-15.7-24.87-5.14-35.43L235.91,90.64c19.73,22.77,31.61,52.54,31.45,85.07Z"/>
  <path class="cls-2" d="m279.7,20.43l-5.22,4.7,3.2,16.75,1.12,5.87,3.24,17.03-4.43,4.37-18.38-30.27-19.48,16.72c-1.3.24-2.69-.15-3.68-1.16h0c-1.56-1.58-1.58-4.1-.09-5.71l.55-.59-.09-.05c2.16-2.37,4.49-4.94,6.69-7.33l.23.05,8.63-9.28-29.96-18.88,4.44-4.37,16.97,3.52,5.87,1.21h-.01s16.7,3.47,16.7,3.47l4.77-5.13c4.03-4.34,9.1-7.6,14.71-9.47,2.46-.82,4.79,1.54,3.93,3.98-1.98,5.59-5.31,10.6-9.71,14.55Z"/>
  <polygon class="cls-1" points="105.89 175.84 101.46 180.2 101.1 179.6 105.74 175.04 105.89 175.84"/>
  <polygon class="cls-2" points="259.6 38.4 258.24 39.74 221.19 76.19 54.82 239.87 47.45 232.38 101.1 179.6 105.74 175.04 212.79 69.72 251.75 31.38 252.23 30.91 259.6 38.4"/>
  <g>
    <path class="cls-3" d="m361.68,176.06h-26.07V45.81h26.07v52.14h52.05v-52.14h26.07v130.25h-26.07v-52.05h-52.05v52.05Z"/>
    <path class="cls-3" d="m498.56,152.26c.97.3,1.94.5,2.91.59.97.09,1.94.14,2.91.14,2.42,0,4.75-.33,6.99-1,2.24-.67,4.34-1.62,6.31-2.86,1.97-1.24,3.72-2.75,5.27-4.54,1.54-1.79,2.8-3.77,3.77-5.95l18.17,18.26c-2.3,3.27-4.95,6.21-7.95,8.81-3,2.6-6.24,4.81-9.72,6.63-3.48,1.82-7.15,3.19-10.99,4.13-3.85.94-7.8,1.41-11.85,1.41-6.84,0-13.28-1.27-19.3-3.81-6.03-2.54-11.29-6.09-15.8-10.63-4.51-4.54-8.07-9.95-10.67-16.21-2.6-6.27-3.91-13.16-3.91-20.66s1.3-14.71,3.91-21.07c2.6-6.36,6.16-11.78,10.67-16.26,4.51-4.48,9.78-7.96,15.8-10.45,6.02-2.48,12.46-3.72,19.3-3.72,4.06,0,8.02.49,11.9,1.45,3.87.97,7.55,2.36,11.04,4.18,3.48,1.82,6.74,4.04,9.76,6.68,3.03,2.63,5.69,5.59,7.99,8.86l-46.51,56.04Zm12.72-51.14c-1.15-.42-2.29-.7-3.41-.82-1.12-.12-2.29-.18-3.5-.18-3.39,0-6.59.62-9.58,1.86-3,1.24-5.6,3.01-7.81,5.31-2.21,2.3-3.95,5.07-5.22,8.31-1.27,3.24-1.91,6.89-1.91,10.95,0,.91.05,1.94.14,3.09.09,1.15.24,2.32.45,3.5.21,1.18.47,2.32.77,3.41.3,1.09.7,2.06,1.18,2.91l28.88-38.33Z"/>
    <path class="cls-3" d="m583.85,176.06l-37.06-97.28h28.25l21.25,60.68,21.16-60.68h28.34l-37.06,97.28h-24.89Z"/>
    <path class="cls-3" d="m691.13,152.26c.97.3,1.94.5,2.91.59s1.94.14,2.91.14c2.42,0,4.75-.33,6.99-1,2.24-.67,4.34-1.62,6.31-2.86,1.97-1.24,3.72-2.75,5.27-4.54,1.54-1.79,2.8-3.77,3.77-5.95l18.17,18.26c-2.3,3.27-4.95,6.21-7.95,8.81-3,2.6-6.24,4.81-9.72,6.63-3.48,1.82-7.15,3.19-10.99,4.13-3.85.94-7.8,1.41-11.85,1.41-6.84,0-13.28-1.27-19.3-3.81-6.03-2.54-11.29-6.09-15.8-10.63-4.51-4.54-8.07-9.95-10.67-16.21-2.6-6.27-3.91-13.16-3.91-20.66s1.3-14.71,3.91-21.07c2.6-6.36,6.16-11.78,10.67-16.26,4.51-4.48,9.78-7.96,15.8-10.45,6.02-2.48,12.46-3.72,19.3-3.72,4.06,0,8.02.49,11.9,1.45,3.88.97,7.55,2.36,11.04,4.18,3.48,1.82,6.74,4.04,9.76,6.68,3.03,2.63,5.69,5.59,7.99,8.86l-46.51,56.04Zm12.72-51.14c-1.15-.42-2.29-.7-3.41-.82-1.12-.12-2.29-.18-3.5-.18-3.39,0-6.59.62-9.58,1.86-3,1.24-5.6,3.01-7.81,5.31-2.21,2.3-3.95,5.07-5.22,8.31-1.27,3.24-1.91,6.89-1.91,10.95,0,.91.04,1.94.14,3.09.09,1.15.24,2.32.45,3.5.21,1.18.47,2.32.77,3.41.3,1.09.7,2.06,1.18,2.91l28.88-38.33Z"/>
    <path class="cls-3" d="m774.87,176.06h-24.8v-97.28h6l8.17,9.45c4-3.63,8.52-6.43,13.58-8.4,5.06-1.97,10.34-2.95,15.85-2.95,5.93,0,11.54,1.14,16.8,3.41,5.27,2.27,9.87,5.39,13.81,9.36,3.94,3.97,7.04,8.6,9.31,13.9,2.27,5.3,3.41,10.94,3.41,16.94v55.59h-24.8v-55.59c0-2.54-.49-4.95-1.45-7.22-.97-2.27-2.3-4.25-4-5.95-1.7-1.69-3.66-3.03-5.9-4-2.24-.97-4.63-1.45-7.18-1.45s-5.06.49-7.36,1.45c-2.3.97-4.3,2.3-6,4-1.7,1.7-3.03,3.68-4,5.95-.97,2.27-1.45,4.68-1.45,7.22v55.59Z"/>
    <path class="cls-3" d="m967.43,202.13h-29.61l-15.62-23.44c-.85.12-1.65.18-2.41.18h-2.23c-6.18,0-12.13-.8-17.85-2.41-5.72-1.6-11.08-3.87-16.08-6.81-5-2.94-9.55-6.46-13.67-10.58-4.12-4.12-7.65-8.67-10.58-13.67-2.94-5-5.21-10.35-6.81-16.08-1.6-5.72-2.41-11.67-2.41-17.85s.8-12.14,2.41-17.89c1.6-5.75,3.88-11.11,6.81-16.08,2.94-4.96,6.46-9.51,10.58-13.62,4.12-4.12,8.67-7.63,13.67-10.54,5-2.91,10.36-5.16,16.08-6.77,5.72-1.6,11.67-2.41,17.85-2.41s12.14.8,17.89,2.41c5.75,1.61,11.11,3.86,16.08,6.77,4.96,2.91,9.51,6.42,13.62,10.54,4.12,4.12,7.63,8.66,10.54,13.62,2.91,4.97,5.16,10.33,6.77,16.08,1.6,5.75,2.41,11.72,2.41,17.89s-.89,12.66-2.68,18.71c-1.79,6.06-4.31,11.7-7.58,16.94-3.27,5.24-7.22,9.98-11.85,14.21-4.63,4.24-9.79,7.78-15.49,10.63l20.16,30.16Zm-8.45-90.65c0-5.69-1.09-11.07-3.27-16.12-2.18-5.06-5.13-9.45-8.86-13.17-3.72-3.72-8.12-6.68-13.17-8.86-5.06-2.18-10.43-3.27-16.12-3.27s-11.14,1.09-16.17,3.27c-5.03,2.18-9.42,5.13-13.17,8.86-3.75,3.72-6.72,8.12-8.9,13.17-2.18,5.06-3.27,10.43-3.27,16.12s1.09,11.04,3.27,16.03c2.18,5,5.15,9.37,8.9,13.12,3.75,3.76,8.14,6.72,13.17,8.9,5.03,2.18,10.41,3.27,16.17,3.27s11.07-1.09,16.12-3.27c5.05-2.18,9.45-5.15,13.17-8.9,3.72-3.75,6.68-8.13,8.86-13.12s3.27-10.34,3.27-16.03Z"/>
    <path class="cls-3" d="m1070.8,164.71c-2,1.82-4.13,3.53-6.4,5.13-2.27,1.61-4.65,3-7.13,4.18-2.48,1.18-5.04,2.12-7.67,2.82-2.63.7-5.31,1.04-8.04,1.04-6,0-11.63-1.06-16.9-3.18-5.27-2.12-9.89-5.13-13.85-9.04-3.97-3.91-7.08-8.66-9.36-14.26-2.27-5.6-3.41-11.88-3.41-18.85v-53.77h24.71v53.77c0,3.27.5,6.19,1.5,8.77,1,2.57,2.35,4.74,4.04,6.49,1.69,1.76,3.68,3.09,5.95,4s4.71,1.36,7.31,1.36,4.95-.59,7.22-1.77c2.27-1.18,4.25-2.74,5.95-4.68,1.69-1.94,3.03-4.13,4-6.59.97-2.45,1.45-4.98,1.45-7.58v-53.77h24.8v97.28h-6l-8.17-11.35Z"/>
    <path class="cls-3" d="m1142.56,152.26c.97.3,1.94.5,2.91.59s1.94.14,2.91.14c2.42,0,4.75-.33,6.99-1,2.24-.67,4.34-1.62,6.31-2.86,1.97-1.24,3.72-2.75,5.27-4.54,1.54-1.79,2.8-3.77,3.77-5.95l18.17,18.26c-2.3,3.27-4.95,6.21-7.95,8.81-3,2.6-6.24,4.81-9.72,6.63-3.48,1.82-7.15,3.19-10.99,4.13-3.85.94-7.8,1.41-11.85,1.41-6.84,0-13.28-1.27-19.3-3.81-6.03-2.54-11.29-6.09-15.8-10.63-4.51-4.54-8.07-9.95-10.67-16.21-2.6-6.27-3.91-13.16-3.91-20.66s1.3-14.71,3.91-21.07c2.6-6.36,6.16-11.78,10.67-16.26,4.51-4.48,9.78-7.96,15.8-10.45,6.02-2.48,12.46-3.72,19.3-3.72,4.06,0,8.02.49,11.9,1.45,3.88.97,7.55,2.36,11.04,4.18,3.48,1.82,6.74,4.04,9.76,6.68,3.03,2.63,5.69,5.59,7.99,8.86l-46.51,56.04Zm12.72-51.14c-1.15-.42-2.29-.7-3.41-.82-1.12-.12-2.29-.18-3.5-.18-3.39,0-6.59.62-9.58,1.86-3,1.24-5.6,3.01-7.81,5.31-2.21,2.3-3.95,5.07-5.22,8.31-1.27,3.24-1.91,6.89-1.91,10.95,0,.91.04,1.94.14,3.09.09,1.15.24,2.32.45,3.5.21,1.18.47,2.32.77,3.41.3,1.09.7,2.06,1.18,2.91l28.88-38.33Z"/>
    <path class="cls-3" d="m1254.92,176.06h-56.68v-24.71h56.68c1.69,0,3.15-.6,4.36-1.82,1.21-1.21,1.82-2.66,1.82-4.36s-.61-2.91-1.82-3.45c-1.21-.54-2.67-.82-4.36-.82h-25.8c-4.3,0-8.33-.82-12.08-2.45-3.75-1.64-7.03-3.86-9.81-6.68-2.79-2.82-4.98-6.1-6.58-9.86-1.61-3.75-2.41-7.78-2.41-12.08s.8-8.33,2.41-12.08c1.6-3.75,3.8-7.02,6.58-9.81,2.78-2.78,6.05-4.98,9.81-6.59,3.75-1.6,7.78-2.41,12.08-2.41h50.23v24.71h-50.23c-1.7,0-3.15.61-4.36,1.82-1.21,1.21-1.82,2.67-1.82,4.36s.6,3.26,1.82,4.5c1.21,1.24,2.66,1.86,4.36,1.86h25.8c4.24,0,8.23.71,11.99,2.13,3.75,1.42,7.02,3.41,9.81,5.95,2.78,2.54,5,5.6,6.63,9.17,1.64,3.57,2.45,7.48,2.45,11.72s-.82,8.31-2.45,12.04c-1.63,3.72-3.85,6.99-6.63,9.81-2.79,2.82-6.06,5.03-9.81,6.63-3.75,1.61-7.75,2.41-11.99,2.41Z"/>
    <path class="cls-3" d="m1347.75,176.06c-5.99,0-11.63-1.14-16.89-3.41-5.27-2.27-9.89-5.39-13.85-9.36-3.97-3.97-7.08-8.58-9.36-13.85-2.27-5.27-3.41-10.9-3.41-16.89v-28.88h-12.08v-24.71h12.08v-38.88h24.71v38.88h37.6v24.71h-37.6v28.88c0,2.6.48,5.04,1.45,7.31.97,2.27,2.3,4.25,4,5.95,1.69,1.7,3.69,3.04,5.99,4.04,2.3,1,4.75,1.5,7.36,1.5h18.8v24.71h-18.8Z"/>
  </g>
  <g>
    <path class="cls-3" d="m502.31,287.79v-3.04h.92c.83,0,1.6-.06,2.32-.18.72-.12,1.35-.36,1.89-.73.54-.37.97-.89,1.27-1.58.31-.68.46-1.59.46-2.73v-35.26c0-1.13-.15-2.04-.46-2.73-.31-.68-.73-1.21-1.27-1.58-.54-.37-1.17-.61-1.89-.73-.72-.12-1.49-.18-2.32-.18h-.92v-3.04h21.1v3.04h-.96c-.8,0-1.57.06-2.3.18-.73.12-1.36.36-1.89.73-.53.37-.96.89-1.27,1.58-.32.69-.48,1.59-.48,2.73v35.26c0,1.13.16,2.04.48,2.73.32.69.74,1.21,1.27,1.58.53.37,1.16.61,1.89.73.73.12,1.5.18,2.3.18h.96v3.04h-21.1Z"/>
    <path class="cls-3" d="m547.69,284.75v3.04h-19.5v-3.04h.6c.83,0,1.6-.06,2.32-.18.72-.12,1.35-.36,1.88-.73.53-.37.96-.89,1.27-1.58.32-.68.48-1.59.48-2.73v-22.62c0-1.06-.16-1.92-.48-2.57-.32-.65-.75-1.15-1.29-1.5-.54-.35-1.17-.59-1.89-.71-.72-.12-1.48-.18-2.28-.18h-.21v-3.04h11.72l.96,5.88h.35c.75-1.34,1.55-2.45,2.39-3.31.84-.86,1.72-1.53,2.65-2.02.93-.48,1.92-.81,2.97-.99,1.05-.18,2.15-.27,3.31-.27,1.91,0,3.62.28,5.11.83s2.77,1.4,3.82,2.55c1.05,1.14,1.85,2.61,2.41,4.41.55,1.79.83,3.93.83,6.41v17.13c0,1.13.14,2.04.41,2.73.27.69.65,1.21,1.15,1.58.5.37,1.08.61,1.77.73.68.12,1.43.18,2.23.18h.25v3.04h-12.64v-25.03c0-1.58-.14-2.99-.42-4.21-.28-1.23-.74-2.27-1.36-3.11-.63-.85-1.45-1.49-2.46-1.93-1.02-.44-2.25-.66-3.72-.66-1.65,0-3.04.32-4.16.96-1.12.64-2.02,1.5-2.71,2.58-.68,1.09-1.17,2.34-1.47,3.75-.3,1.42-.44,2.9-.44,4.46v15.29c0,1.06.16,1.92.48,2.57.32.65.75,1.14,1.29,1.47.54.33,1.17.55,1.89.66.72.11,1.48.16,2.28.16h.21Z"/>
    <path class="cls-3" d="m594.45,284.75v3.04h-19.5v-3.04h.6c.83,0,1.6-.06,2.32-.18.72-.12,1.35-.36,1.88-.73.53-.37.96-.89,1.27-1.58.32-.68.48-1.59.48-2.73v-22.62c0-1.06-.16-1.92-.48-2.57-.32-.65-.75-1.15-1.29-1.5-.54-.35-1.17-.59-1.89-.71-.72-.12-1.48-.18-2.28-.18h-.21v-3.04h11.72l.96,5.88h.35c.75-1.34,1.55-2.45,2.39-3.31.84-.86,1.72-1.53,2.65-2.02.93-.48,1.92-.81,2.97-.99,1.05-.18,2.15-.27,3.31-.27,1.91,0,3.62.28,5.11.83s2.77,1.4,3.82,2.55c1.05,1.14,1.85,2.61,2.41,4.41.55,1.79.83,3.93.83,6.41v17.13c0,1.13.14,2.04.41,2.73.27.69.65,1.21,1.15,1.58.5.37,1.09.61,1.77.73.68.12,1.43.18,2.23.18h.25v3.04h-12.64v-25.03c0-1.58-.14-2.99-.42-4.21-.28-1.23-.74-2.27-1.36-3.11-.63-.85-1.45-1.49-2.46-1.93-1.02-.44-2.25-.66-3.72-.66-1.65,0-3.04.32-4.16.96-1.12.64-2.02,1.5-2.71,2.58-.68,1.09-1.17,2.34-1.47,3.75-.3,1.42-.44,2.9-.44,4.46v15.29c0,1.06.16,1.92.48,2.57.32.65.75,1.14,1.29,1.47.54.33,1.17.55,1.89.66.72.11,1.48.16,2.28.16h.21Z"/>
    <path class="cls-3" d="m680.08,287.79l-6.02-6.37c-.87.99-1.83,1.92-2.88,2.78-1.05.86-2.21,1.61-3.49,2.25-1.27.64-2.68,1.14-4.23,1.5-1.55.37-3.24.55-5.08.55-2.9,0-5.43-.37-7.59-1.1-2.16-.73-3.95-1.76-5.38-3.1s-2.5-2.93-3.2-4.8-1.06-3.94-1.06-6.23c0-2.05.28-3.84.83-5.36s1.33-2.86,2.34-4.02c1-1.16,2.22-2.17,3.65-3.04,1.43-.87,3.01-1.67,4.76-2.41-.92-1.09-1.73-2.13-2.42-3.13s-1.27-2-1.73-2.99-.81-2.01-1.04-3.04c-.24-1.04-.35-2.15-.35-3.33,0-1.6.26-3.06.78-4.35.52-1.3,1.33-2.42,2.44-3.36,1.11-.94,2.53-1.67,4.27-2.18s3.81-.76,6.21-.76,4.28.27,5.91.81c1.63.54,2.96,1.29,3.98,2.23,1.03.94,1.77,2.04,2.23,3.29s.69,2.57.69,3.96c0,1.56-.22,2.94-.67,4.14-.45,1.2-1.16,2.31-2.14,3.33s-2.24,1.98-3.79,2.88c-1.55.91-3.43,1.83-5.65,2.78l13.2,13.98c.33-1.08.6-2.19.81-3.31.21-1.12.38-2.22.51-3.29.13-1.07.22-2.12.27-3.15.05-1.03.07-1.98.07-2.85v-2.83h13.06v3.04h-.67c-.8,0-1.59.05-2.37.14-.78.09-1.5.31-2.18.65-.67.34-1.27.84-1.8,1.49-.53.65-.95,1.53-1.26,2.64-.42,1.56-.92,3.25-1.47,5.06-.56,1.82-1.25,3.63-2.07,5.45l6.73,7.19c.35.35.72.65,1.1.88.38.24.82.42,1.33.57.51.14,1.11.24,1.81.28.7.05,1.54.07,2.53.07h.64v3.04h-11.58Zm-21.03-3.33c1.42,0,2.73-.15,3.95-.44s2.33-.7,3.35-1.22c1.01-.52,1.95-1.14,2.8-1.86s1.62-1.5,2.3-2.35l-16.04-17.17c-1.11.61-2.11,1.29-2.99,2.04-.88.74-1.64,1.6-2.27,2.58s-1.1,2.08-1.43,3.31c-.33,1.23-.5,2.62-.5,4.18,0,1.77.26,3.33.78,4.69.52,1.36,1.26,2.5,2.21,3.43.96.93,2.09,1.63,3.42,2.11,1.32.47,2.8.71,4.42.71Zm8.25-38.8c0-.97-.12-1.86-.35-2.69-.24-.83-.62-1.54-1.15-2.14-.53-.6-1.23-1.08-2.09-1.43-.86-.35-1.91-.53-3.13-.53-2.15,0-3.8.62-4.96,1.88-1.16,1.25-1.73,2.91-1.73,4.99,0,.92.09,1.78.28,2.58.19.8.49,1.6.9,2.39.41.79.94,1.61,1.58,2.46.64.85,1.42,1.78,2.34,2.8,1.42-.61,2.65-1.26,3.7-1.95s1.92-1.43,2.6-2.25,1.19-1.72,1.52-2.71c.33-.99.5-2.12.5-3.4Z"/>
    <path class="cls-3" d="m726.38,288.5c-1.82,0-3.46-.16-4.94-.48-1.48-.32-2.73-.8-3.77-1.45-1.04-.65-1.84-1.45-2.41-2.41-.57-.96-.85-2.07-.85-3.35,0-.97.16-1.78.48-2.42.32-.65.71-1.16,1.17-1.54.46-.38.96-.64,1.49-.8.53-.15,1.01-.23,1.43-.23,0,1.27.13,2.47.39,3.58.26,1.11.7,2.08,1.31,2.92.61.84,1.42,1.5,2.42,1.98,1,.48,2.24.73,3.7.73,1.3,0,2.44-.16,3.43-.48.99-.32,1.82-.77,2.5-1.34s1.19-1.27,1.54-2.09c.35-.81.53-1.7.53-2.67,0-.9-.14-1.67-.41-2.32-.27-.65-.74-1.26-1.42-1.82-.67-.57-1.59-1.14-2.74-1.74-1.16-.59-2.61-1.26-4.35-2.02-1.86-.83-3.49-1.62-4.87-2.39s-2.52-1.6-3.42-2.5c-.9-.9-1.57-1.92-2.02-3.06s-.67-2.51-.67-4.09.32-3.12.97-4.39c.65-1.27,1.58-2.34,2.78-3.2,1.2-.86,2.64-1.52,4.32-1.96,1.67-.45,3.54-.67,5.59-.67,1.72,0,3.24.18,4.57.53,1.32.35,2.43.83,3.33,1.43s1.57,1.31,2.02,2.12.67,1.67.67,2.57c0,1.32-.46,2.38-1.36,3.17-.91.79-2.2,1.19-3.88,1.19,0-2.43-.5-4.32-1.5-5.66-1-1.35-2.58-2.02-4.73-2.02-1.23,0-2.28.14-3.15.42-.87.28-1.59.68-2.14,1.2-.55.52-.96,1.13-1.22,1.84s-.39,1.49-.39,2.34c0,.92.17,1.72.5,2.39.33.67.85,1.29,1.58,1.86.72.57,1.65,1.12,2.8,1.65,1.14.53,2.52,1.13,4.12,1.79,1.91.8,3.55,1.59,4.92,2.37,1.37.78,2.5,1.63,3.38,2.55.89.92,1.54,1.96,1.96,3.11.42,1.16.64,2.49.64,4,0,1.89-.34,3.54-1.03,4.96s-1.65,2.6-2.9,3.56-2.76,1.67-4.51,2.14c-1.76.47-3.71.71-5.86.71Z"/>
    <path class="cls-3" d="m782.06,279.9c0,1.06.16,1.92.48,2.57.32.65.75,1.14,1.29,1.47.54.33,1.17.55,1.89.66.72.11,1.48.16,2.28.16h.21v3.04h-11.5l-.96-5.88h-.35c-.73,1.37-1.54,2.48-2.42,3.33s-1.82,1.52-2.81,2c-.99.48-2.03.81-3.12.99-1.08.18-2.22.27-3.4.27-1.91,0-3.61-.27-5.1-.81-1.49-.54-2.74-1.39-3.75-2.55-1.02-1.16-1.79-2.63-2.32-4.42-.53-1.79-.8-3.93-.8-6.41v-17.38c0-1.06-.16-1.92-.48-2.57-.32-.65-.75-1.15-1.29-1.5-.54-.35-1.17-.59-1.89-.71-.72-.12-1.48-.18-2.28-.18h-.21v-3.04h12.99v25.03c0,1.58.12,2.99.37,4.21.25,1.23.66,2.26,1.24,3.11.58.85,1.36,1.49,2.34,1.93s2.2.65,3.66.65c1.6,0,2.98-.28,4.12-.85,1.14-.57,2.09-1.36,2.83-2.39.74-1.03,1.29-2.26,1.65-3.7.35-1.44.53-3.03.53-4.78v-14.94c0-1.13-.16-2.05-.48-2.74-.32-.7-.74-1.23-1.27-1.59-.53-.37-1.16-.61-1.88-.73-.72-.12-1.49-.18-2.32-.18h-.21v-3.04h12.96v30.97Z"/>
    <path class="cls-3" d="m792.5,284.75c.8,0,1.56-.05,2.28-.16.72-.11,1.35-.32,1.89-.66.54-.33.97-.82,1.29-1.47.32-.65.48-1.5.48-2.57v-22.97c0-1.06-.16-1.92-.48-2.57-.32-.65-.75-1.15-1.29-1.5-.54-.35-1.17-.59-1.89-.71-.72-.12-1.48-.18-2.28-.18h-.21v-3.04h12.96v30.62c0,1.13.16,2.04.48,2.73.32.69.74,1.21,1.27,1.58.53.37,1.16.61,1.89.73.73.12,1.5.18,2.3.18h.96v3.04h-20.6v-3.04h.96Zm4.92-47.58c0-.85.11-1.56.32-2.12s.51-1.03.88-1.38c.38-.35.81-.6,1.31-.74.5-.14,1.04-.21,1.63-.21s1.1.07,1.59.21c.5.14.93.39,1.29.74.37.35.66.81.88,1.38s.34,1.27.34,2.12-.11,1.56-.34,2.12c-.22.57-.52,1.03-.88,1.38-.37.35-.8.61-1.29.76-.5.15-1.03.23-1.59.23s-1.13-.08-1.63-.23c-.5-.15-.93-.41-1.31-.76-.38-.35-.67-.81-.88-1.38-.21-.57-.32-1.27-.32-2.12Z"/>
    <path class="cls-3" d="m832.29,284.68c.87,0,1.67-.05,2.41-.14.73-.09,1.47-.21,2.23-.35v3.19c-.31.14-.71.28-1.2.42-.5.14-1.03.27-1.61.37-.58.11-1.19.19-1.82.25-.64.06-1.24.09-1.81.09-1.84,0-3.42-.19-4.74-.58-1.32-.39-2.41-1.02-3.26-1.89s-1.48-2.03-1.89-3.47c-.41-1.44-.62-3.2-.62-5.27v-24.21h-5.52v-2.9c.87,0,1.83-.18,2.88-.53,1.05-.35,1.98-.94,2.78-1.77.83-.9,1.49-1.96,2-3.2s.95-2.79,1.33-4.66h3.33v8.92h9.49v4.14h-9.49v24.42c0,2.48.5,4.29,1.5,5.45s2.34,1.73,4.02,1.73Z"/>
    <path class="cls-3" d="m859.41,288.5c-2.62,0-4.97-.44-7.06-1.33-2.09-.89-3.85-2.18-5.29-3.88-1.44-1.7-2.54-3.78-3.31-6.25-.77-2.47-1.15-5.27-1.15-8.41,0-6.77,1.39-11.87,4.18-15.29s6.75-5.13,11.89-5.13c2.34,0,4.44.37,6.3,1.1,1.86.73,3.45,1.82,4.74,3.27,1.3,1.45,2.29,3.26,2.99,5.42.7,2.16,1.04,4.67,1.04,7.52v3.33h-24.14c.05,2.64.31,4.92.8,6.81.48,1.9,1.18,3.46,2.09,4.69.91,1.23,2.02,2.13,3.35,2.71,1.32.58,2.84.87,4.57.87,1.25,0,2.41-.14,3.49-.42,1.07-.28,2.05-.66,2.92-1.13.87-.47,1.65-1.01,2.32-1.61.67-.6,1.22-1.23,1.65-1.89.33.14.64.44.94.88.29.45.44.98.44,1.59,0,.73-.26,1.52-.78,2.35-.52.84-1.31,1.61-2.37,2.32-1.06.71-2.39,1.3-3.98,1.77s-3.46.71-5.61.71Zm-.88-36.39c-2.69,0-4.76,1.09-6.21,3.27-1.45,2.18-2.31,5.38-2.57,9.58h16.67c0-1.91-.14-3.66-.42-5.24-.28-1.58-.73-2.94-1.35-4.07s-1.42-2.01-2.42-2.62-2.24-.92-3.7-.92Z"/>
    <path class="cls-3" d="m892.61,288.5c-1.82,0-3.46-.16-4.94-.48-1.48-.32-2.73-.8-3.77-1.45-1.04-.65-1.84-1.45-2.41-2.41-.57-.96-.85-2.07-.85-3.35,0-.97.16-1.78.48-2.42.32-.65.71-1.16,1.17-1.54.46-.38.96-.64,1.49-.8.53-.15,1.01-.23,1.43-.23,0,1.27.13,2.47.39,3.58.26,1.11.7,2.08,1.31,2.92.61.84,1.42,1.5,2.42,1.98,1,.48,2.24.73,3.7.73,1.3,0,2.44-.16,3.43-.48.99-.32,1.82-.77,2.5-1.34s1.19-1.27,1.54-2.09c.35-.81.53-1.7.53-2.67,0-.9-.14-1.67-.41-2.32-.27-.65-.74-1.26-1.42-1.82-.67-.57-1.59-1.14-2.74-1.74-1.16-.59-2.61-1.26-4.35-2.02-1.86-.83-3.49-1.62-4.87-2.39s-2.52-1.6-3.42-2.5c-.9-.9-1.57-1.92-2.02-3.06s-.67-2.51-.67-4.09.32-3.12.97-4.39c.65-1.27,1.58-2.34,2.78-3.2,1.2-.86,2.64-1.52,4.32-1.96,1.67-.45,3.54-.67,5.59-.67,1.72,0,3.24.18,4.57.53,1.32.35,2.43.83,3.33,1.43s1.57,1.31,2.02,2.12.67,1.67.67,2.57c0,1.32-.46,2.38-1.36,3.17-.91.79-2.2,1.19-3.88,1.19,0-2.43-.5-4.32-1.5-5.66-1-1.35-2.58-2.02-4.73-2.02-1.23,0-2.28.14-3.15.42-.87.28-1.59.68-2.14,1.2-.55.52-.96,1.13-1.22,1.84s-.39,1.49-.39,2.34c0,.92.17,1.72.5,2.39.33.67.85,1.29,1.58,1.86.72.57,1.65,1.12,2.8,1.65,1.14.53,2.52,1.13,4.12,1.79,1.91.8,3.55,1.59,4.92,2.37,1.37.78,2.5,1.63,3.38,2.55.89.92,1.54,1.96,1.96,3.11.42,1.16.64,2.49.64,4,0,1.89-.34,3.54-1.03,4.96s-1.65,2.6-2.9,3.56-2.76,1.67-4.51,2.14c-1.76.47-3.71.71-5.86.71Z"/>
    <path class="cls-3" d="m931.69,287.79v-3.04h.92c.83,0,1.6-.06,2.32-.18.72-.12,1.35-.36,1.89-.73.54-.37.97-.89,1.27-1.58.31-.68.46-1.59.46-2.73v-35.54c0-1.06-.16-1.92-.48-2.57-.32-.65-.75-1.15-1.29-1.5s-1.17-.58-1.89-.69c-.72-.11-1.48-.16-2.28-.16h-.92v-3.04h20.35c3.04,0,5.69.35,7.93,1.04,2.24.7,4.09,1.7,5.56,3.01s2.55,2.9,3.27,4.76c.72,1.87,1.08,3.98,1.08,6.34,0,2.15-.34,4.21-1.01,6.19-.67,1.98-1.78,3.73-3.31,5.26s-3.54,2.74-6.02,3.65c-2.48.91-5.51,1.36-9.1,1.36h-4.57v12.25c0,1.06.16,1.92.48,2.57s.75,1.14,1.29,1.47c.54.33,1.17.55,1.89.66.72.11,1.48.16,2.28.16h2.41v3.04h-22.55Zm14.2-23.58h3.86c2.19,0,4.07-.23,5.63-.69s2.83-1.2,3.82-2.23c.99-1.03,1.72-2.35,2.18-3.96s.69-3.57.69-5.86c0-2.03-.2-3.79-.6-5.29-.4-1.5-1.05-2.74-1.95-3.73-.9-.99-2.06-1.73-3.49-2.21-1.43-.48-3.17-.73-5.22-.73h-4.92v24.71Z"/>
    <path class="cls-3" d="m973,251.97v-3.04h18.12v3.04h-.92c-1.46,0-2.55.28-3.27.85s-1.08,1.45-1.08,2.66c0,.4.05.81.14,1.22.09.41.24.89.42,1.43l4.92,13.7c.31.85.62,1.79.96,2.81.33,1.03.64,2.04.94,3.03.29.99.56,1.93.8,2.81.24.88.4,1.63.5,2.25h.25c.12-.52.31-1.16.58-1.93.27-.77.58-1.6.92-2.51.34-.91.7-1.83,1.06-2.78.37-.94.71-1.85,1.04-2.73l5.2-14.12c.24-.59.41-1.16.51-1.7.11-.54.16-1.01.16-1.42,0-1.25-.4-2.16-1.19-2.73-.79-.57-1.99-.85-3.59-.85h-.53v-3.04h15.54v3.04h-.88c-.71,0-1.31.08-1.8.23-.5.15-.94.44-1.35.87s-.79,1-1.15,1.73c-.37.73-.77,1.68-1.22,2.83l-11.43,30.16h-6.62l-11.65-31.96c-.28-.75-.58-1.38-.89-1.88-.31-.5-.66-.89-1.06-1.19s-.86-.5-1.38-.62c-.52-.12-1.13-.18-1.84-.18h-.21Z"/>
    <path class="cls-3" d="m1033.92,284.68c.87,0,1.67-.05,2.41-.14.73-.09,1.47-.21,2.23-.35v3.19c-.31.14-.71.28-1.2.42-.5.14-1.03.27-1.61.37-.58.11-1.19.19-1.82.25-.64.06-1.24.09-1.81.09-1.84,0-3.42-.19-4.74-.58-1.32-.39-2.41-1.02-3.26-1.89s-1.48-2.03-1.89-3.47c-.41-1.44-.62-3.2-.62-5.27v-24.21h-5.52v-2.9c.87,0,1.83-.18,2.88-.53,1.05-.35,1.98-.94,2.78-1.77.83-.9,1.49-1.96,2-3.2s.95-2.79,1.33-4.66h3.33v8.92h9.49v4.14h-9.49v24.42c0,2.48.5,4.29,1.5,5.45s2.34,1.73,4.02,1.73Z"/>
    <path class="cls-3" d="m1061.81,287.79v-3.04h.92c.83,0,1.6-.06,2.32-.18.72-.12,1.35-.36,1.89-.73.54-.37.97-.89,1.27-1.58.31-.68.46-1.59.46-2.73v-35.26c0-1.13-.15-2.04-.46-2.73-.31-.68-.73-1.21-1.27-1.58-.54-.37-1.17-.61-1.89-.73-.72-.12-1.49-.18-2.32-.18h-.92v-3.04h21.1v3.04h-.96c-.8,0-1.56.05-2.28.16s-1.35.34-1.89.69-.97.86-1.29,1.5c-.32.65-.48,1.5-.48,2.57v40.18h14.3c1.08,0,2.01-.2,2.78-.58.77-.39,1.4-.9,1.89-1.52.5-.62.88-1.33,1.15-2.11.27-.78.45-1.56.55-2.34l.71-5.42h3.79l-.5,15.58h-38.87Z"/>
    <path class="cls-3" d="m1123.44,284.68c.87,0,1.67-.05,2.41-.14.73-.09,1.47-.21,2.23-.35v3.19c-.31.14-.71.28-1.2.42-.5.14-1.03.27-1.61.37-.58.11-1.19.19-1.82.25-.64.06-1.24.09-1.81.09-1.84,0-3.42-.19-4.74-.58-1.32-.39-2.41-1.02-3.26-1.89s-1.48-2.03-1.89-3.47c-.41-1.44-.62-3.2-.62-5.27v-24.21h-5.52v-2.9c.87,0,1.83-.18,2.88-.53,1.05-.35,1.98-.94,2.78-1.77.83-.9,1.49-1.96,2-3.2s.95-2.79,1.33-4.66h3.33v8.92h9.49v4.14h-9.49v24.42c0,2.48.5,4.29,1.5,5.45s2.34,1.73,4.02,1.73Z"/>
    <path class="cls-3" d="m1166.42,279.83c0,1.06.16,1.92.48,2.57.32.65.75,1.15,1.29,1.5.54.35,1.17.58,1.89.69.72.11,1.48.16,2.28.16h.6v3.04h-12.28l-.78-6.51h-.28c-.54,1.11-1.16,2.11-1.86,2.99-.7.89-1.49,1.64-2.39,2.27-.9.63-1.91,1.11-3.04,1.45s-2.41.51-3.82.51c-2.38,0-4.5-.4-6.34-1.19-1.84-.79-3.39-2.01-4.64-3.65-1.25-1.64-2.2-3.72-2.83-6.25-.64-2.52-.96-5.52-.96-8.99s.32-6.51.96-9.06c.64-2.55,1.58-4.65,2.83-6.3,1.25-1.65,2.8-2.87,4.64-3.66,1.84-.79,3.95-1.19,6.34-1.19,1.39,0,2.66.15,3.79.46,1.13.31,2.15.74,3.06,1.31s1.72,1.24,2.42,2.02c.71.78,1.32,1.64,1.84,2.58h.42c-.07-1.18-.14-2.29-.21-3.33-.05-.9-.09-1.79-.14-2.67-.05-.89-.07-1.54-.07-1.96v-5.95c0-1.06-.16-1.92-.48-2.57-.32-.65-.75-1.15-1.29-1.5-.54-.35-1.17-.58-1.89-.69s-1.48-.16-2.28-.16h-.6v-3.04h13.35v47.12Zm-16.67,4.04c1.89,0,3.46-.31,4.73-.94s2.28-1.58,3.04-2.85,1.31-2.88,1.63-4.81c.32-1.93.48-4.21.48-6.83s-.16-4.75-.48-6.69c-.32-1.94-.86-3.56-1.63-4.87-.77-1.31-1.79-2.31-3.06-2.99s-2.87-1.03-4.78-1.03c-1.58,0-2.94.34-4.07,1.03s-2.06,1.69-2.78,3.01c-.72,1.32-1.25,2.96-1.58,4.9-.33,1.95-.5,4.18-.5,6.71,0,5.14.7,8.99,2.09,11.54,1.39,2.55,3.69,3.82,6.9,3.82Z"/>
    <path class="cls-3" d="m1180.04,283.37c0-.94.12-1.73.35-2.35.24-.62.56-1.13.97-1.5.41-.38.9-.65,1.45-.81.55-.16,1.15-.25,1.79-.25s1.2.08,1.75.25c.55.17,1.04.44,1.45.81.41.38.74.88.99,1.5s.37,1.41.37,2.35-.12,1.7-.37,2.34c-.25.64-.58,1.15-.99,1.52-.41.38-.9.65-1.45.81-.55.17-1.14.25-1.75.25s-1.23-.08-1.79-.25c-.55-.17-1.04-.44-1.45-.81-.41-.38-.74-.88-.97-1.52-.24-.64-.35-1.42-.35-2.34Z"/>
  </g>
</svg>